<svg version="1.1" xmlns="http://www.w3.org/2000/svg" xmlns:xlink="http://www.w3.org/1999/xlink" x="0px" y="0px" width="96" height="96" viewBox="0 0 48 48" enable-background="new 0 0 48 48" xml:space="preserve">
<path fill="#64B5F6" d="M40,13H25v22h15c1.104,0,2-0.896,2-2V15C42,13.896,41.104,13,40,13z"/>
<g>
	<path fill="#FFFFFF" d="M39,18.243v0.7v1.742c0,0.141,0,0.377-0.141,0.498l-1.82,1.819c-0.139,0.141-0.28,0.141-0.42,0l-0.699-0.56&#10;&#9;&#9;c-0.141-0.14-0.141-0.28,0-0.42l0.839-0.84l0,0v-2.94h-2.52c-2.24,1.68-4.06,4.76-4.62,4.2c-0.699-0.561,3.641-6.3,4.199-6.44h2.94&#10;&#9;&#9;h1.82c0.28,0,0.421,0.141,0.421,0.421V18.243L39,18.243z"/>
	<path fill="#FFFFFF" d="M36.76,32h-0.7h-1.742c-0.141,0-0.377,0-0.498-0.141L32,30.039c-0.141-0.14-0.141-0.28,0-0.42l0.56-0.7&#10;&#9;&#9;c0.14-0.141,0.28-0.141,0.42,0l0.84,0.84l0,0h2.94v-2.52c-1.68-2.24-4.76-4.061-4.2-4.62c0.561-0.7,6.3,3.641,6.44,4.199v2.94v1.82&#10;&#9;&#9;C39,31.859,38.859,32,38.579,32H36.76L36.76,32z"/>
	<path fill="#FFFFFF" d="M23.543,29.76v-0.7v-1.742c0-0.141,0-0.377,0.141-0.498L25.504,25c0.139-0.141,0.28-0.141,0.42,0&#10;&#9;&#9;l0.699,0.56c0.141,0.14,0.141,0.28,0,0.42l-0.839,0.84l0,0v2.94h2.52c2.24-1.68,4.06-4.76,4.62-4.2&#10;&#9;&#9;c0.699,0.561-3.641,6.3-4.199,6.44h-2.94h-1.82c-0.28,0-0.421-0.141-0.421-0.421V29.76L23.543,29.76z"/>
	<path fill="#FFFFFF" d="M25.783,16.003h0.7h1.742c0.141,0,0.377,0,0.498,0.141l1.819,1.82c0.141,0.14,0.141,0.28,0,0.42l-0.56,0.7&#10;&#9;&#9;c-0.14,0.141-0.28,0.141-0.42,0l-0.84-0.84l0,0h-2.94v2.52c1.68,2.24,4.76,4.061,4.2,4.62c-0.561,0.7-6.3-3.641-6.44-4.199v-2.94&#10;&#9;&#9;v-1.82c0-0.28,0.141-0.421,0.421-0.421H25.783L25.783,16.003z"/>
</g>
<polygon fill="#1E88E5" points="27,42 6,38 6,10 27,6 "/>
<path fill="#FFFFFF" d="M20,32.813l-8-0.701V16.809l7.72-0.836v3.083l-4.771,0.283v3.511l4.352-0.139v3.082h-4.352v3.655L20,29.728&#10;&#9;V32.813z"/>
</svg>