<?xml version="1.0" encoding="utf-8"?>
<!-- Generator: Adobe Illustrator 21.1.0, SVG Export Plug-In . SVG Version: 6.00 Build 0)  -->
<svg version="1.1" id="Layer_1" xmlns="http://www.w3.org/2000/svg" xmlns:xlink="http://www.w3.org/1999/xlink" x="0px" y="0px"
	 viewBox="0 0 595 176" style="enable-background:new 0 0 595 176;" xml:space="preserve">
<style type="text/css">
	.st0{fill:#FFFFFF;}
	.st1{fill:#FFFFFF;stroke:#FFFFFF;stroke-miterlimit:10;}
</style>
<g>
	<g>
		<path class="st0" d="M177.8,33h-23v37h-26.7V33h-23v37v23v50h23V93h26.7v34.9c0,8.3,6.8,15.1,15.1,15.1h7.9h11.5v-23h-11.5V93
			h11.5V70h-11.5V33L177.8,33z"/>
	</g>
	<g>
		<path class="st0" d="M288.9,33h-23v95c0,8.3,6.8,15.1,15.1,15.1h7.9h11.5v-23h-11.5V93h11.5V70h-11.5V33L288.9,33z"/>
	</g>
	<g>
		<path class="st0" d="M357.7,70h-7.9h-23h-7.9c-8.3,0-15.1,6.8-15.1,15.1v42.9c0,8.3,6.7,15.1,15.1,15.1h38.8
			c8.3,0,15.1-6.8,15.1-15.1V120h-46v-7.8h23h23V93v-7.9C372.8,76.8,366,70,357.7,70L357.7,70z M326.8,100.8V93h23v7.8H326.8
			L326.8,100.8z"/>
	</g>
	<g>
		<path class="st0" d="M411.8,33h-11.5h-7.9c-8.3,0-15.1,6.8-15.1,15.1v95h23V55.9h11.5V33L411.8,33z"/>
	</g>
	<g>
		<polygon class="st0" points="439.4,70 416.5,70 416.5,143 439.4,143 439.4,70 		"/>
	</g>
	<g>
		<polygon class="st0" points="439.4,33 416.5,33 416.5,55.9 439.4,55.9 439.4,33 		"/>
	</g>
	<g>
		<path class="st0" d="M478.3,33h-23v37h-11.5v23h11.5v34.9c0,8.3,6.8,15.1,15.1,15.1h7.9h11.5v-23h-11.5V93h11.5V70h-11.5V33
			L478.3,33z"/>
	</g>
	<path class="st1" d="M239.2,93v27h-23V93H239.2 M247.1,70h-38.8c-8.3,0-15.1,6.8-15.1,15.1v42.8c0,8.3,6.8,15.1,15.1,15.1h38.8
		c8.3,0,15.1-6.8,15.1-15.1V85.1C262.2,76.8,255.4,70,247.1,70L247.1,70z"/>
</g>
</svg>
