<?xml version="1.0" encoding="utf-8"?>
<!-- Generator: Adobe Illustrator 21.1.0, SVG Export Plug-In . SVG Version: 6.00 Build 0)  -->
<svg version="1.1" id="Layer_1" xmlns="http://www.w3.org/2000/svg" xmlns:xlink="http://www.w3.org/1999/xlink" x="0px" y="0px"
	 viewBox="0 0 279.3 279.3" style="enable-background:new 0 0 279.3 279.3;" xml:space="preserve">
<style type="text/css">
	.st0{fill:#1BD2FF;}
	.st1{fill:#FFFFFF;}
	.st2{display:none;fill:#1BD2FF;}
	.st3{display:none;}
	.st4{display:inline;fill:#1BD2FF;}
</style>
<path class="st0" d="M231.5,279.3H47.8C21.4,279.3,0,257.9,0,231.5V47.8C0,21.4,21.4,0,47.8,0h183.7c26.4,0,47.8,21.4,47.8,47.8
	v183.7C279.3,257.9,257.9,279.3,231.5,279.3z"/>
<polygon class="st1" points="174.9,133.1 102.8,133.1 102.8,67.8 115.8,67.8 115.8,120.1 161.9,120.1 161.9,67.8 174.9,67.8 "/>
<polygon class="st1" points="174.9,211.5 161.9,211.5 161.9,159.2 115.8,159.2 115.8,211.5 102.8,211.5 102.8,146.2 174.9,146.2 "/>
<polygon class="st1" points="56.5,237.5 43.5,237.5 43.5,41.8 204.8,41.8 204.8,211.5 191.8,211.5 191.8,54.8 56.5,54.8 "/>
<polygon class="st1" points="235.8,237.5 72.1,237.5 72.1,67.8 85.1,67.8 85.1,224.5 222.8,224.5 222.8,41.8 235.8,41.8 "/>
<rect x="43.5" y="249.8" class="st2" width="192.3" height="13"/>
<g id="E" class="st3">
	<rect x="170.8" y="275.5" class="st4" width="13" height="13"/>
	<rect x="170.8" y="288.5" class="st4" width="13" height="13"/>
	<rect x="170.8" y="301.5" class="st4" width="13" height="13"/>
	<rect x="183.8" y="275.5" class="st4" width="13" height="13"/>
	<rect x="183.8" y="301.5" class="st4" width="13" height="13"/>
	<rect x="170.8" y="314.5" class="st4" width="13" height="13"/>
	<rect x="170.8" y="327.5" class="st4" width="13" height="13"/>
	<rect x="183.8" y="327.5" class="st4" width="13" height="13"/>
</g>
<g id="L" class="st3">
	<rect x="202.1" y="276" class="st4" width="13" height="13"/>
	<rect x="202.1" y="289" class="st4" width="13" height="13"/>
	<rect x="202.1" y="302" class="st4" width="13" height="13"/>
	<rect x="202.1" y="315" class="st4" width="13" height="13"/>
	<rect x="202.1" y="328" class="st4" width="13" height="13"/>
	<rect x="215.1" y="328" class="st4" width="13" height="13"/>
</g>
<g id="H" class="st3">
	<rect x="43.5" y="275.5" class="st4" width="13" height="13"/>
	<rect x="43.5" y="288.5" class="st4" width="13" height="13"/>
	<rect x="43.5" y="301.5" class="st4" width="13" height="13"/>
	<rect x="43.5" y="314.5" class="st4" width="13" height="13"/>
	<rect x="43.5" y="327.5" class="st4" width="13" height="13"/>
	<rect x="69.5" y="275.5" class="st4" width="13" height="13"/>
	<rect x="69.5" y="288.5" class="st4" width="13" height="13"/>
	<rect x="69.5" y="301.5" class="st4" width="13" height="13"/>
	<rect x="69.5" y="314.5" class="st4" width="13" height="13"/>
	<rect x="69.5" y="327.5" class="st4" width="13" height="13"/>
	<rect x="56.5" y="301.5" class="st4" width="13" height="13"/>
</g>
<g id="Layer_5" class="st3">
	<rect x="87.5" y="275.5" class="st4" width="13" height="13"/>
	<rect x="87.5" y="288.5" class="st4" width="13" height="13"/>
	<rect x="87.5" y="301.5" class="st4" width="13" height="13"/>
	<rect x="87.5" y="314.5" class="st4" width="13" height="13"/>
	<rect x="87.5" y="327.5" class="st4" width="13" height="13"/>
	<rect x="113.5" y="275.5" class="st4" width="13" height="13"/>
	<rect x="113.5" y="288.5" class="st4" width="13" height="13"/>
	<rect x="113.5" y="301.5" class="st4" width="13" height="13"/>
	<rect x="113.5" y="314.5" class="st4" width="13" height="13"/>
	<rect x="113.5" y="327.5" class="st4" width="13" height="13"/>
	<rect x="100.5" y="275.5" class="st4" width="13" height="13"/>
	<rect x="100.5" y="327.5" class="st4" width="13" height="13"/>
</g>
<g id="Layer_6" class="st3">
	<rect x="142.3" y="327.6" class="st4" width="13" height="13"/>
	<rect x="142.3" y="314.6" class="st4" width="13" height="13"/>
	<rect x="142.3" y="301.6" class="st4" width="13" height="13"/>
	<rect x="142.3" y="288.6" class="st4" width="13" height="13"/>
	<rect x="142.3" y="275.6" class="st4" width="13" height="13"/>
	<rect x="155" y="275.6" class="st4" width="13" height="13"/>
	<rect x="129.3" y="275.6" class="st4" width="13" height="13"/>
</g>
</svg>
