<?xml version="1.0" encoding="utf-8"?>
<svg version="1.1" id="Layer_1" xmlns="http://www.w3.org/2000/svg" xmlns:xlink="http://www.w3.org/1999/xlink" x="0px" y="0px"
	 viewBox="0 0 387.6 114.6" style="enable-background:new 0 0 387.6 114.6;" xml:space="preserve">
<style type="text/css">
	.st0{fill:#22B8F0;}
</style>

	
		<path class="st0" d="M74.1,2.3h-23v37H24.5v-37h-23v37v23v50h23v-50h26.7v34.9c0,8.3,6.8,15.1,15.1,15.1h7.9h11.5v-23H74.1v-27
			h11.5v-23H74.1V2.3L74.1,2.3z"/>
	
		<path class="st0" d="M185.3,2.3h-23v95c0,8.3,6.8,15.1,15.1,15.1h7.9h11.5v-23h-11.5v-27h11.5v-23h-11.5V2.3L185.3,2.3z"/>
	
		<path class="st0" d="M254,39.3h-7.9h-23h-7.9c-8.3,0-15.1,6.8-15.1,15.1v42.9c0,8.3,6.7,15.1,15.1,15.1H254
			c8.3,0,15.1-6.8,15.1-15.1v-7.9h-46v-7.8h23h23V62.3v-7.9C269.1,46.1,262.3,39.3,254,39.3L254,39.3z M223.1,70.1v-7.8h23v7.8
			H223.1L223.1,70.1z"/>
	
		<path class="st0" d="M308.1,2.3h-11.5h-7.9c-8.3,0-15.1,6.8-15.1,15.1v95h23V25.3h11.5V2.3L308.1,2.3z"/>
	
		<polygon class="st0" points="335.8,39.3 312.8,39.3 312.8,112.3 335.8,112.3 335.8,39.3 		"/>
	
		<polygon class="st0" points="335.8,2.3 312.8,2.3 312.8,25.3 335.8,25.3 335.8,2.3 		"/>
	
		<path class="st0" d="M374.6,2.3h-23v37h-11.5v23h11.5v34.9c0,8.3,6.8,15.1,15.1,15.1h7.9h11.5v-23h-11.5v-27h11.5v-23h-11.5V2.3
			L374.6,2.3z"/>
	
	<path class="st0" d="M135.5,62.3v27h-23v-27H135.5 M143.4,39.3h-38.8c-8.3,0-15.1,6.8-15.1,15.1v42.8c0,8.3,6.8,15.1,15.1,15.1
		h38.8c8.3,0,15.1-6.8,15.1-15.1V54.4C158.5,46.1,151.7,39.3,143.4,39.3L143.4,39.3z"/>

</svg>
