<?xml version="1.0" encoding="utf-8"?>
<!-- Generator: Adobe Illustrator 21.1.0, SVG Export Plug-In . SVG Version: 6.00 Build 0)  -->
<svg version="1.1" id="Layer_1" xmlns="http://www.w3.org/2000/svg" xmlns:xlink="http://www.w3.org/1999/xlink" x="0px" y="0px"
	 viewBox="0 0 1039.4 279.3" style="enable-background:new 0 0 1039.4 279.3;" xml:space="preserve">
<style type="text/css">
	.st0{fill:#1BD2FF;}
	.st1{fill:#FFFFFF;}
	.st2{display:none;fill:#1BD2FF;}
	.st3{display:none;}
	.st4{display:inline;fill:#1BD2FF;}
</style>
<path class="st0" d="M231.5,279.3H47.8C21.4,279.3,0,257.9,0,231.5V47.8C0,21.4,21.4,0,47.8,0h183.7c26.4,0,47.8,21.4,47.8,47.8
	v183.7C279.3,257.9,257.9,279.3,231.5,279.3z"/>
<polygon class="st1" points="174.9,133.1 102.8,133.1 102.8,67.8 115.8,67.8 115.8,120.1 161.9,120.1 161.9,67.8 174.9,67.8 "/>
<polygon class="st1" points="174.9,211.5 161.9,211.5 161.9,159.2 115.8,159.2 115.8,211.5 102.8,211.5 102.8,146.2 174.9,146.2 "/>
<polygon class="st1" points="56.5,237.5 43.5,237.5 43.5,41.8 204.8,41.8 204.8,211.5 191.8,211.5 191.8,54.8 56.5,54.8 "/>
<polygon class="st1" points="235.8,237.5 72.1,237.5 72.1,67.8 85.1,67.8 85.1,224.5 222.8,224.5 222.8,41.8 235.8,41.8 "/>
<rect x="43.5" y="249.8" class="st2" width="192.3" height="13"/>
<g id="E" class="st3">
	<rect x="170.8" y="275.5" class="st4" width="13" height="13"/>
	<rect x="170.8" y="288.5" class="st4" width="13" height="13"/>
	<rect x="170.8" y="301.5" class="st4" width="13" height="13"/>
	<rect x="183.8" y="275.5" class="st4" width="13" height="13"/>
	<rect x="183.8" y="301.5" class="st4" width="13" height="13"/>
	<rect x="170.8" y="314.5" class="st4" width="13" height="13"/>
	<rect x="170.8" y="327.5" class="st4" width="13" height="13"/>
	<rect x="183.8" y="327.5" class="st4" width="13" height="13"/>
</g>
<g id="L" class="st3">
	<rect x="202.1" y="276" class="st4" width="13" height="13"/>
	<rect x="202.1" y="289" class="st4" width="13" height="13"/>
	<rect x="202.1" y="302" class="st4" width="13" height="13"/>
	<rect x="202.1" y="315" class="st4" width="13" height="13"/>
	<rect x="202.1" y="328" class="st4" width="13" height="13"/>
	<rect x="215.1" y="328" class="st4" width="13" height="13"/>
</g>
<g id="H" class="st3">
	<rect x="43.5" y="275.5" class="st4" width="13" height="13"/>
	<rect x="43.5" y="288.5" class="st4" width="13" height="13"/>
	<rect x="43.5" y="301.5" class="st4" width="13" height="13"/>
	<rect x="43.5" y="314.5" class="st4" width="13" height="13"/>
	<rect x="43.5" y="327.5" class="st4" width="13" height="13"/>
	<rect x="69.5" y="275.5" class="st4" width="13" height="13"/>
	<rect x="69.5" y="288.5" class="st4" width="13" height="13"/>
	<rect x="69.5" y="301.5" class="st4" width="13" height="13"/>
	<rect x="69.5" y="314.5" class="st4" width="13" height="13"/>
	<rect x="69.5" y="327.5" class="st4" width="13" height="13"/>
	<rect x="56.5" y="301.5" class="st4" width="13" height="13"/>
</g>
<g id="Layer_5" class="st3">
	<rect x="87.5" y="275.5" class="st4" width="13" height="13"/>
	<rect x="87.5" y="288.5" class="st4" width="13" height="13"/>
	<rect x="87.5" y="301.5" class="st4" width="13" height="13"/>
	<rect x="87.5" y="314.5" class="st4" width="13" height="13"/>
	<rect x="87.5" y="327.5" class="st4" width="13" height="13"/>
	<rect x="113.5" y="275.5" class="st4" width="13" height="13"/>
	<rect x="113.5" y="288.5" class="st4" width="13" height="13"/>
	<rect x="113.5" y="301.5" class="st4" width="13" height="13"/>
	<rect x="113.5" y="314.5" class="st4" width="13" height="13"/>
	<rect x="113.5" y="327.5" class="st4" width="13" height="13"/>
	<rect x="100.5" y="275.5" class="st4" width="13" height="13"/>
	<rect x="100.5" y="327.5" class="st4" width="13" height="13"/>
</g>
<g id="Layer_6" class="st3">
	
		<rect x="142.3" y="327.5" transform="matrix(-1 -1.224647e-16 1.224647e-16 -1 297.5832 668.0848)" class="st4" width="13" height="13"/>
	
		<rect x="142.3" y="314.5" transform="matrix(-1 -1.224647e-16 1.224647e-16 -1 297.5832 642.0848)" class="st4" width="13" height="13"/>
	
		<rect x="142.3" y="301.5" transform="matrix(-1 -1.224647e-16 1.224647e-16 -1 297.5832 616.0848)" class="st4" width="13" height="13"/>
	
		<rect x="142.3" y="288.5" transform="matrix(-1 -1.224647e-16 1.224647e-16 -1 297.5832 590.0848)" class="st4" width="13" height="13"/>
	
		<rect x="142.3" y="275.5" transform="matrix(-1 -1.224647e-16 1.224647e-16 -1 297.5832 564.0848)" class="st4" width="13" height="13"/>
	
		<rect x="155" y="275.5" transform="matrix(-1 -1.224647e-16 1.224647e-16 -1 322.9567 564.0848)" class="st4" width="13" height="13"/>
	
		<rect x="129.3" y="275.5" transform="matrix(-1 -1.224647e-16 1.224647e-16 -1 271.5832 564.0848)" class="st4" width="13" height="13"/>
</g>
<g>
	<path d="M434.7,73.9v145.6h-27.6v-65h-44.3v65h-27.6V73.9h27.6v55.7h44.3V73.9H434.7z"/>
	<path d="M467.6,87.3c7.8-10.8,21.8-16.1,41.8-16.1c20.1,0,34.1,5.4,41.9,16.1c7.9,10.8,11.8,30.6,11.8,59.4
		c0,28.8-3.9,48.6-11.8,59.4c-7.9,10.8-21.8,16.1-41.9,16.1c-20.1,0-34-5.4-41.8-16.1c-7.8-10.8-11.7-30.6-11.7-59.4
		C455.9,117.9,459.8,98.1,467.6,87.3z M528.8,107.4c-3.4-6.9-9.9-10.3-19.3-10.3c-9.4,0-15.9,3.4-19.3,10.3
		c-3.4,6.9-5.2,20-5.2,39.3c0,19.3,1.7,32.4,5.2,39.3c3.4,6.9,9.9,10.3,19.3,10.3c9.4,0,15.9-3.4,19.3-10.3c3.4-6.9,5.2-20,5.2-39.3
		C534,127.4,532.2,114.3,528.8,107.4z"/>
	<path d="M676.1,100.1h-37.4v119.5h-27.8V100.1h-37.4V73.9h102.6V100.1z"/>
	<path d="M775.4,194.4l1.4,25.7h-58.2c-8.4,0-15-2.6-20-7.9c-5-5.3-7.5-12.4-7.6-21.4v-88.2c0.1-9,2.7-16.1,7.6-21.4
		c5-5.3,11.6-7.9,20-7.9l58.2,0.6l-1.3,25.3h-48.1c-3,0-5.2,0.8-6.5,2.5c-1.3,1.7-2,4.4-2,8.2v22.2h49.9v23.2h-49.9v28.1
		c0,3.9,0.7,6.8,2,8.4c1.3,1.7,3.5,2.5,6.5,2.5H775.4z"/>
	<path d="M823.9,73.9v108.7c0,3.8,0.8,6.5,2.3,8.2c1.5,1.7,4,2.5,7.5,2.5h43l1.4,26.8H825c-9.7,0-16.9-2.8-21.6-8.4
		c-4.7-5.6-7.1-13.2-7.1-22.6V73.9H823.9z"/>
	<path d="M920.8,219.5h-27.6V73.9h27.6V219.5z"/>
	<path d="M1039.4,100.1H1002v119.5h-27.8V100.1h-37.4V73.9h102.6V100.1z"/>
</g>
</svg>
