<?xml version="1.0" encoding="utf-8"?>
<!-- Generator: Adobe Illustrator 21.1.0, SVG Export Plug-In . SVG Version: 6.00 Build 0)  -->
<svg version="1.1" xmlns="http://www.w3.org/2000/svg" xmlns:xlink="http://www.w3.org/1999/xlink" x="0px" y="0px"
	 viewBox="0 0 80 109.8" style="enable-background:new 0 0 80 109.8;" xml:space="preserve">
<style type="text/css">
	.st0{display:none;}
	.st1{display:inline;}
	.st2{fill:#8BB7F0;}
	.st3{fill:#4E7AB5;}
	.st4{display:inline;fill:#FFFFFF;}
	.st5{display:inline;fill:#A3B7CC;}
	.st6{fill:#F78F8F;}
	.st7{fill:#C74343;}
	.st8{display:inline;fill:#C74343;}
	.st9{fill:#F2FAFF;}
	.st10{fill:#A3B7CC;}
	.st11{fill:#FFFFFF;}
</style>
<g id="Layer_1" class="st0">
	<g class="st1">
		<rect x="0.5" y="26.4" class="st2" width="79" height="55"/>
		<path class="st3" d="M79,26.9v54H1v-54H79 M80,25.9H0v56h80V25.9L80,25.9z"/>
	</g>
	<polygon class="st4" points="0,33.5 37.3,58.4 42.6,49.2 7.8,25.9 0,25.9 	"/>
	<polygon class="st4" points="80,25.9 73.9,25.9 39.1,49.2 44.4,58.4 80,34.6 	"/>
	<polygon class="st4" points="44.4,48 39.1,57.2 76.1,81.9 80,81.9 80,71.8 	"/>
	<polygon class="st4" points="0,72.9 0,81.9 6,81.9 42.6,57.2 37.3,48 	"/>
	<rect x="1" y="47.9" class="st4" width="78" height="12"/>
	<rect x="34" y="26.9" class="st4" width="12" height="54"/>
	<rect x="34" y="25.9" class="st5" width="12" height="1"/>
	<rect x="34" y="80.9" class="st5" width="12" height="1"/>
	<rect x="79" y="47.9" class="st5" width="1" height="12"/>
	<rect y="47.9" class="st5" width="1" height="12"/>
	<g class="st1">
		<polygon class="st6" points="36.5,81.4 36.5,57.4 0.5,57.4 0.5,50.4 36.5,50.4 36.5,26.4 43.5,26.4 43.5,50.4 79.5,50.4 
			79.5,57.4 43.5,57.4 43.5,81.4 		"/>
		<path class="st7" d="M43,26.9v23v1h1h35v6H44h-1v1v23h-6v-23v-1h-1H1v-6h35h1v-1v-23H43 M44,25.9h-8v24H0v8h36v24h8v-24h36v-8H44
			V25.9L44,25.9z"/>
	</g>
	<polygon class="st8" points="80,25.9 78,25.9 46,47.9 50.9,47.9 80,27.9 	"/>
	<polygon class="st8" points="34,59.9 29.1,59.9 0,79.9 0,81.9 2,81.9 	"/>
	<polygon class="st5" points="1,26.9 9.3,26.9 7.8,25.9 0,25.9 0,33.5 1,34.2 	"/>
	<polygon class="st5" points="1,80.9 1,72.2 0,72.9 0,81.9 6,81.9 7.5,80.9 	"/>
	<polygon class="st8" points="0,27.9 0,31.2 25,47.9 30,47.9 	"/>
	<polygon class="st5" points="73.9,25.9 72.4,26.9 78.9,26.9 78.9,35.3 80,34.6 80,25.9 	"/>
	<polygon class="st5" points="79,71.1 79,80.9 74.6,80.9 76.1,81.9 80,81.9 80,71.8 	"/>
	<polygon class="st8" points="80,74.4 59.2,59.9 54,59.9 80,77.9 	"/>
</g>
<g id="Layer_2">
	<g>
		<rect x="0.5" y="26.4" class="st9" width="79" height="55.1"/>
		<g>
			<path class="st10" d="M79,26.8V81H1V26.8H79 M80,25.9H0v56h80V25.9L80,25.9z"/>
		</g>
	</g>
	<g>
		<rect x="0.5" y="58.1" class="st6" width="79" height="23.3"/>
		<g>
			<path class="st7" d="M79,58.6V81H1V58.6H79 M80,57.6H0v24.3h80V57.6L80,57.6z"/>
		</g>
	</g>
	<g>
		<rect x="0.5" y="45" class="st2" width="79" height="17.7"/>
		<path class="st3" d="M79,45.5v16.8H1V45.5H79 M80,44.6H0v18.7h80V44.6L80,44.6z"/>
	</g>
	<g>
		<path class="st6" d="M21,62.7c-1.9-1-4.1-2.3-5.7-4c-1.8-2.2-2.8-5-2.8-8.4V39.4h17v10.8c0,3.4-0.9,6.1-2.7,8.3
			C25.2,60.4,23,61.7,21,62.7z"/>
		<path class="st7" d="M29,39.9v10.4c0,3.3-0.8,5.9-2.6,8c-1.5,1.7-3.6,2.9-5.5,3.9c-1.8-1-3.8-2.2-5.3-3.8
			c-1.8-2.1-2.6-4.8-2.6-8.2V39.9H29 M30,39H12c0,0,0,2.9,0,11.3c0,4,1.2,6.8,2.9,8.7c1.6,1.7,3.7,3,6.1,4.2
			c2.2-1.1,4.5-2.4,6.2-4.4c1.6-2,2.8-4.6,2.8-8.6C30,42,30,39,30,39L30,39z"/>
	</g>
	<g>
		<path class="st11" d="M30,39c0,0,0,3,0,11.3c0,4-1.2,6.6-2.8,8.6c-1.8,2-4.1,3.3-6.2,4.4c-2.4-1.2-4.5-2.5-6.1-4.2
			c-1.7-2-2.9-4.7-2.9-8.7c0-8.4,0-11.3,0-11.3H30 M31,38h-1H12h-1V39v11.3c0,3.8,1,6.8,3.1,9.3l0,0l0,0c1.8,2,4.3,3.4,6.4,4.4
			l0.5,0.2l0.5-0.2c2.2-1.1,4.6-2.5,6.5-4.6c2-2.5,3-5.5,3-9.2V39V38L31,38z"/>
	</g>
	<rect x="16" y="47.4" class="st11" width="10" height="1.9"/>
	<rect x="18" y="43.6" class="st11" width="6" height="1.9"/>
	<rect x="20" y="41.8" class="st11" width="2" height="14.9"/>
	<g>
		<path class="st2" d="M21,62.7c-1.9-1-4.1-2.3-5.7-4c-0.6-0.7-1.1-1.5-1.5-2.4c0.6-0.9,1.6-1.9,2.3-1.9c1.3,0,1.7,1.1,1.7,1.2
			l0.6,1.5l0.4-1.5c0.2-0.8,1-3,2.3-3c1.3,0,2.1,2.1,2.3,3l0.4,1.5l0.6-1.5c0,0,0.5-1.2,1.7-1.2c0.6,0,1.7,1,2.3,1.9
			c-0.4,0.8-0.9,1.6-1.5,2.3C25.2,60.4,23,61.7,21,62.7z"/>
		<path class="st3" d="M21,53c0.8,0,1.6,1.7,1.8,2.6l0.7,2.9l1.2-2.8c0-0.1,0.4-0.9,1.3-0.9c0.3,0,1.2,0.7,1.7,1.4
			c-0.4,0.7-0.8,1.4-1.3,2c-1.5,1.7-3.6,2.9-5.5,3.9c-1.8-1-3.8-2.2-5.3-3.8c-0.5-0.6-1-1.3-1.4-2.1c0.6-0.8,1.4-1.5,1.7-1.5
			c0.9,0,1.2,0.8,1.3,0.9l1.2,2.9l0.7-3C19.4,54.7,20.2,53,21,53 M21,52c-2,0-2.8,3.3-2.8,3.3s-0.6-1.5-2.2-1.5
			c-1,0-2.3,1.4-2.8,2.3c0,0,0,0,0,0c0.5,1,1,1.9,1.7,2.7c1.6,1.7,3.7,3,6.1,4.2c2.2-1.1,4.5-2.4,6.2-4.4c0.6-0.8,1.2-1.6,1.6-2.7
			c-0.5-0.9-1.9-2.3-2.9-2.3c-1.6,0-2.2,1.5-2.2,1.5S23,52,21,52L21,52z"/>
	</g>
</g>
</svg>
