<?xml version="1.0" encoding="utf-8"?>
<!-- Generator: Adobe Illustrator 21.1.0, SVG Export Plug-In . SVG Version: 6.00 Build 0)  -->
<svg version="1.1" xmlns="http://www.w3.org/2000/svg" xmlns:xlink="http://www.w3.org/1999/xlink" x="0px" y="0px"
	 viewBox="0 0 326 326" style="enable-background:new 0 0 326 326;" xml:space="preserve">
<style type="text/css">
	.st0{fill:#FFFFFF;}
	.st1{fill:#788B9C;}
	.st2{fill:#F78F8F;}
	.st3{fill:#C74343;}
	.st4{fill:#C5D4DE;}
	.st5{fill:#E1EBF2;}
	.st6{fill:#FFEEA3;}
	.st7{fill:#BA9B48;}
	.st8{fill:#FFEEA3;stroke:#BA9B48;stroke-miterlimit:10;}
	.st9{fill:#8BB7F0;}
	.st10{fill:#4E7AB5;}
	.st11{fill:#BAE0BD;}
	.st12{fill:#5E9C76;}
	.st13{fill:none;stroke:#FFFFFF;stroke-width:3;stroke-miterlimit:10;}
	.st14{fill:none;stroke:#8BB7F0;stroke-miterlimit:10;}
	.st15{fill:#C8D1DB;}
	.st16{fill:#C2E8FF;}
	.st17{fill:#F5CE85;}
	.st18{fill:#967A44;}
	.st19{fill:#36404D;}
	.st20{fill:#D9E7F5;}
	.st21{opacity:0.6;}
	.st22{opacity:0.5;}
	.st23{fill:#C4C4C4;}
</style>
<g id="calendar">
	<g>
		<rect x="50.7" y="239.7" class="st0" width="71" height="71"/>
		<g>
			<path class="st1" d="M121.2,240.2v70h-70v-70H121.2 M122.2,239.2h-72v72h72V239.2L122.2,239.2z"/>
		</g>
	</g>
	<g>
		<rect x="50.7" y="239.7" class="st2" width="71" height="11"/>
		<g>
			<path class="st3" d="M121.2,240.2v10h-70v-10H121.2 M122.2,239.2h-72v12h72V239.2L122.2,239.2z"/>
		</g>
	</g>
	<rect x="72.2" y="263.2" class="st4" width="4" height="4"/>
	<rect x="88.2" y="263.2" class="st4" width="4" height="4"/>
	<rect x="96.2" y="263.2" class="st4" width="4" height="4"/>
	<rect x="104.2" y="263.2" class="st4" width="4" height="4"/>
	<rect x="64.2" y="271.2" class="st4" width="4" height="4"/>
	<rect x="72.2" y="271.2" class="st4" width="4" height="4"/>
	<rect x="88.2" y="271.2" class="st4" width="4" height="4"/>
	<rect x="96.2" y="271.2" class="st4" width="4" height="4"/>
	<rect x="104.2" y="271.2" class="st4" width="4" height="4"/>
	<rect x="64.2" y="287.2" class="st4" width="4" height="4"/>
	<rect x="72.2" y="287.2" class="st4" width="4" height="4"/>
	<rect x="88.2" y="287.2" class="st4" width="4" height="4"/>
	<rect x="80.2" y="263.2" class="st4" width="4" height="4"/>
	<rect x="80.2" y="271.2" class="st4" width="4" height="4"/>
	<rect x="64.2" y="279.2" class="st4" width="4" height="4"/>
	<rect x="72.2" y="279.2" class="st4" width="4" height="4"/>
	<rect x="88.2" y="279.2" class="st4" width="4" height="4"/>
	<rect x="96.2" y="279.2" class="st4" width="4" height="4"/>
	<rect x="104.2" y="279.2" class="st4" width="4" height="4"/>
	<rect x="80.2" y="279.2" class="st4" width="4" height="4"/>
	<rect x="80.2" y="287.2" class="st4" width="4" height="4"/>
	<rect x="96.2" y="287.2" class="st4" width="4" height="4"/>
	<rect x="51.2" y="305.2" class="st5" width="70" height="5"/>
</g>
<g id="mail">
	<g>
		<rect x="121.9" y="8.3" class="st6" width="75" height="55"/>
		<path class="st7" d="M196.4,8.8v54h-74v-54H196.4 M197.4,7.8h-76v56h76V7.8L197.4,7.8z"/>
	</g>
	<path class="st8" d="M121.9,19.6L154.1,37c3.3,1.8,7.2,1.8,10.5,0l32.2-17.4"/>
</g>
<g id="contact">
	<g>
		<path class="st9" d="M259.7,171.5v-71h57.5c0.8,0,1.5,0.7,1.5,1.5v68c0,0.8-0.7,1.5-1.5,1.5H259.7z"/>
		<g>
			<path class="st10" d="M317.2,101c0.6,0,1,0.4,1,1v68c0,0.6-0.4,1-1,1h-57v-70H317.2 M317.2,100h-58v72h58c1.1,0,2-0.9,2-2v-68
				C319.2,100.9,318.3,100,317.2,100L317.2,100z"/>
		</g>
	</g>
	<g>
		<path class="st10" d="M265.2,172h-8c-1.1,0-2-0.9-2-2v-68c0-1.1,0.9-2,2-2h8V172z"/>
	</g>
	<g>
		<circle class="st0" cx="291.2" cy="128" r="8"/>
	</g>
	<path class="st0" d="M303.2,150c0-6.6-5.4-12-12-12c-6.6,0-12,5.4-12,12H303.2z"/>
</g>
<g id="task">
	<g>
		<polygon class="st0" points="7.2,168.5 7.2,97.5 44.5,97.5 62.2,115.2 62.2,168.5 		"/>
		<g>
			<path class="st1" d="M44.3,98l17.4,17.4V168h-54V98H44.3 M44.7,97h-38v72h56v-54L44.7,97L44.7,97z"/>
		</g>
	</g>
	<g>
		<path class="st4" d="M42.5,169h20.3v-33.1c-0.3-0.1-0.7-0.2-1-0.3V168H41.6C41.9,168.4,42.2,168.7,42.5,169z"/>
	</g>
	<g>
		<polygon class="st0" points="44.2,115.5 44.2,97.5 44.5,97.5 62.2,115.2 62.2,115.5 		"/>
		<g>
			<path class="st1" d="M44.7,98.4L61.3,115H44.7V98.4 M44.7,97h-1v19h19v-1L44.7,97L44.7,97z"/>
		</g>
	</g>
	<g>
		<g>
			<path class="st11" d="M56.7,172.5c-9.6,0-17.5-7.9-17.5-17.5s7.9-17.5,17.5-17.5s17.5,7.9,17.5,17.5S66.4,172.5,56.7,172.5z"/>
			<g>
				<path class="st12" d="M56.7,138c9.4,0,17,7.6,17,17c0,9.4-7.6,17-17,17s-17-7.6-17-17C39.7,145.6,47.4,138,56.7,138 M56.7,137
					c-9.9,0-18,8.1-18,18c0,9.9,8.1,18,18,18s18-8.1,18-18C74.7,145.1,66.7,137,56.7,137L56.7,137z"/>
			</g>
		</g>
		<polyline class="st13" points="48.7,154.1 55.3,160.6 65.7,150.1 		"/>
	</g>
</g>
<g id="note">
	<g>
		<rect x="197.9" y="244.7" class="st0" width="71" height="67"/>
		<g>
			<path class="st1" d="M268.4,245.2v66h-70v-66H268.4 M269.4,244.2h-72v68h72V244.2L269.4,244.2z"/>
		</g>
	</g>
	<g>
		<rect x="197.4" y="244.2" class="st1" width="72" height="12"/>
	</g>
	<line class="st14" x1="219.4" y1="271.7" x2="255.4" y2="271.7"/>
	<line class="st14" x1="211.4" y1="271.7" x2="214.4" y2="271.7"/>
	<line class="st14" x1="219.4" y1="279.7" x2="255.4" y2="279.7"/>
	<line class="st14" x1="211.4" y1="279.7" x2="214.4" y2="279.7"/>
	<line class="st14" x1="219.4" y1="287.7" x2="255.4" y2="287.7"/>
	<line class="st14" x1="211.4" y1="287.7" x2="214.4" y2="287.7"/>
	<line class="st14" x1="219.4" y1="295.7" x2="255.4" y2="295.7"/>
	<line class="st14" x1="211.4" y1="295.7" x2="214.4" y2="295.7"/>
	<path class="st15" d="M268.4,278.2v33h-32.9l-0.3,1h34.2v-33.9C269.1,278.2,268.8,278.2,268.4,278.2
		C268.4,278.2,268.4,278.2,268.4,278.2z"/>
	<polygon class="st16" points="248.6,295.2 247.6,296.2 255.4,296.2 255.4,295.2 	"/>
	<g>
		<polygon class="st17" points="241.1,308.2 244.5,304.7 251.3,310.6 247.4,314.5 238.2,317.4 		"/>
		<path class="st18" d="M244.6,305.4l6,5.2l-3.4,3.4l-8.2,2.6l2.6-8.2L244.6,305.4 M244.5,304.1l-3.9,3.9l-3.3,10.3l10.3-3.2
			l4.3-4.3L244.5,304.1L244.5,304.1z"/>
	</g>
	<g>
		<polygon class="st19" points="239.2,312.5 237.4,318.2 243.1,316.4 		"/>
	</g>
	<g>
		<path class="st2" d="M263.3,285.9l1.9-1.9c0.8-0.8,2-1.3,3.2-1.3c1.2,0,2.3,0.5,3.2,1.3c1.7,1.7,1.7,4.6,0,6.3l-1.9,1.9
			L263.3,285.9z"/>
		<g>
			<path class="st3" d="M268.4,283.2c1.1,0,2.1,0.4,2.8,1.2c1.5,1.5,1.5,4.1,0,5.6l-1.6,1.6l-5.6-5.6l1.6-1.6
				C266.4,283.6,267.4,283.2,268.4,283.2 M268.4,282.2c-1.3,0-2.5,0.5-3.5,1.5l-2.3,2.3l7,7l2.3-2.3c1.9-1.9,1.9-5.1,0-7l0,0
				C271,282.7,269.7,282.2,268.4,282.2L268.4,282.2z"/>
		</g>
	</g>
	<g>
		<path class="st6" d="M248.1,313.8c-0.1-0.3-0.2-0.5-0.4-0.8c-0.4-0.5-1-0.7-1.7-0.8c-0.2-1.7-1.6-2.4-2.6-2.5
			c-0.2-1.2-0.9-1.8-1.7-2.1l19.3-19.3l6.3,6.3L248.1,313.8z"/>
		<g>
			<path class="st7" d="M261,289l5.6,5.6L248.2,313c-0.1-0.1-0.1-0.2-0.2-0.2c-0.3-0.4-0.8-0.8-1.7-0.9c-0.3-1.5-1.5-2.2-2.6-2.5
				c-0.2-0.8-0.7-1.5-1.3-1.8L261,289 M261,287.6l-20.3,20.3c0,0,0,0,0,0c0.3,0,2.2,0.1,2.2,2.2c0,0,2.6,0.1,2.6,2.6
				c2.6,0,2.2,2.2,2.2,2.2l20.3-20.3L261,287.6L261,287.6z"/>
		</g>
	</g>
	<g>
		<polygon class="st20" points="259.1,290.2 264.4,284.9 270.7,291.2 265.4,296.5 		"/>
		<g>
			<path class="st1" d="M264.4,285.6l5.6,5.6l-4.6,4.6l-5.6-5.6L264.4,285.6 M264.4,284.2l-6,6l7,7l6-6L264.4,284.2L264.4,284.2z"/>
		</g>
	</g>
</g>
<g id="Layer_6" class="st21">
	<g class="st22">
		<path class="st23" d="M264.7,87.4l-1.3-1.6c-12.3-15.2-28.2-27.7-45.9-36l-1.8-0.8l1.7-3.6l1.8,0.8c18.2,8.5,34.6,21.4,47.3,37.1
			l1.3,1.6L264.7,87.4z"/>
		<g>
			<polygon class="st23" points="222.8,68.8 226.6,67.4 219.7,48.9 238.6,43.4 237.5,39.6 214.4,46.3 			"/>
		</g>
	</g>
	<g class="st22">
		<path class="st23" d="M59.8,88.8l-3.1-2.5l1.2-1.6C71,68,88.2,54.5,107.4,45.7l1.8-0.8l1.7,3.6l-1.8,0.8
			c-18.7,8.5-35.3,21.6-48,37.8L59.8,88.8z"/>
		<g>
			<polygon class="st23" points="80.7,86.3 80.2,82.3 60.6,84.9 59.5,65.2 55.5,65.4 56.9,89.4 			"/>
		</g>
	</g>
	<g class="st22">
		<path class="st23" d="M43.4,226.7l-0.9-1.8c-7-14.6-11.3-30.3-12.7-46.5l-0.2-2l4-0.3l0.2,2c1.3,15.8,5.5,30.9,12.3,45.1l0.9,1.8
			L43.4,226.7z"/>
		<g>
			<polygon class="st23" points="54,205.1 50.2,203.8 43.9,222.5 25.7,214.9 24.1,218.6 46.3,227.9 			"/>
		</g>
	</g>
	<g class="st22">
		<path class="st23" d="M162.7,300.4c-10,0-19.9-1.1-29.6-3.3l-2-0.4l0.9-3.9l2,0.4c11,2.5,22.3,3.5,33.6,3.1
			c5.5-0.2,11.1-0.8,16.5-1.7l2-0.3l0.7,3.9l-2,0.3c-5.6,0.9-11.3,1.5-17,1.7C166.1,300.4,164.4,300.4,162.7,300.4z"/>
		<g>
			<polygon class="st23" points="169,282.1 166.7,285.4 182.9,296.7 170.5,312 173.6,314.5 188.7,295.9 			"/>
		</g>
	</g>
	<g class="st22">
		<path class="st23" d="M275.4,238.5l-3.4-2.1l1-1.7c8.7-14.2,14.6-29.8,17.3-46.2l0.3-2l3.9,0.7l-0.3,2c-2.8,16.9-8.8,33-17.8,47.6
			L275.4,238.5z"/>
		<g>
			<polygon class="st23" points="273.6,198.7 275.9,201.9 291.8,190.3 302.3,207 305.7,204.9 292.9,184.5 			"/>
		</g>
	</g>
</g>
</svg>
